<svg width="151" height="151" viewBox="0 0 151 151" fill="none" xmlns="http://www.w3.org/2000/svg">
<mask id="mask0_1343_13742" style="mask-type:luminance" maskUnits="userSpaceOnUse" x="5" y="13" width="142" height="125">
<path d="M146.797 13.4612H5.02612V137.511H146.797V13.4612Z" fill="white"/>
</mask>
<g mask="url(#mask0_1343_13742)">
<path d="M111.357 137.511V128.65C111.357 127.487 111.128 126.334 110.683 125.259C110.238 124.185 109.585 123.208 108.762 122.385C107.939 121.562 106.962 120.909 105.888 120.464C104.812 120.019 103.66 119.79 102.497 119.79H67.0513C55.3013 119.79 44.0325 115.122 35.7239 106.813C27.4153 98.5047 22.7475 87.2364 22.7473 75.4862C22.7473 69.6681 23.8933 63.9071 26.1198 58.5319C28.3463 53.1567 31.6097 48.2727 35.7237 44.1587C39.8378 40.0448 44.7218 36.7815 50.097 34.555C55.4722 32.3286 61.2333 31.1828 67.0513 31.1828H102.494C103.657 31.1832 104.81 30.9542 105.886 30.5091C106.961 30.064 107.938 29.4113 108.761 28.5885C109.584 27.7656 110.237 26.7887 110.683 25.7135C111.128 24.6383 111.357 23.4859 111.357 22.322V13.4612H67.0533C58.9082 13.4612 50.8427 15.0656 43.3175 18.1826C35.7923 21.2997 28.9548 25.8684 23.1953 31.6279C17.4358 37.3875 12.8671 44.2251 9.75018 51.7503C6.63321 59.2755 5.02897 67.341 5.02905 75.4862C5.02905 91.9359 11.5637 107.712 23.1955 119.344C34.8273 130.976 50.6034 137.511 67.0533 137.511H111.357Z" fill="url(#paint0_linear_1343_13742)"/>
<path d="M40.4695 75.4862C40.4695 82.5362 43.27 89.2971 48.2549 94.2817C53.2398 99.267 60.0009 102.067 67.0506 102.067H111.358C116.058 102.067 120.565 103.935 123.888 107.258C127.212 110.581 129.079 115.089 129.079 119.789V137.511H146.8V119.79C146.8 110.39 143.066 101.375 136.42 94.7276C129.773 88.081 120.758 84.347 111.358 84.347H67.0519C64.7019 84.347 62.4481 83.4133 60.7863 81.752C59.1246 80.09 58.1911 77.8362 58.1911 75.4862C58.1911 73.1362 59.1246 70.8824 60.7863 69.2206C62.4481 67.5589 64.7019 66.6254 67.0519 66.6254H111.358C120.758 66.6254 129.773 62.8913 136.42 56.2445C143.066 49.5977 146.8 40.5828 146.8 31.1828V13.4612H129.076V31.1828C129.076 35.8822 127.21 40.3893 123.887 43.7125C120.564 47.0357 116.057 48.903 111.358 48.9038H67.0519C63.561 48.9036 60.1043 49.591 56.8791 50.9269C53.6538 52.2627 50.7233 54.2208 48.2549 56.6892C45.7865 59.1576 43.8285 62.0881 42.4926 65.3133C41.1568 68.5386 40.4693 71.9953 40.4695 75.4862Z" fill="url(#paint1_linear_1343_13742)"/>
</g>
<defs>
<linearGradient id="paint0_linear_1343_13742" x1="21.0846" y1="75.4862" x2="157.504" y2="75.4862" gradientUnits="userSpaceOnUse">
<stop stop-color="#F54A48"/>
<stop offset="1" stop-color="#FA982F"/>
</linearGradient>
<linearGradient id="paint1_linear_1343_13742" x1="21.0109" y1="75.4859" x2="157.54" y2="75.4859" gradientUnits="userSpaceOnUse">
<stop stop-color="#F54A48"/>
<stop offset="1" stop-color="#FA982F"/>
</linearGradient>
</defs>
</svg>
