<svg width="512" height="125" viewBox="0 0 512 125" fill="none" xmlns="http://www.w3.org/2000/svg">
<mask id="mask0_1343_13716" style="mask-type:luminance" maskUnits="userSpaceOnUse" x="0" y="0" width="143" height="125">
<path d="M142.124 0.475037H0.353027V124.525H142.124V0.475037Z" fill="white"/>
</mask>
<g mask="url(#mask0_1343_13716)">
<path d="M106.684 124.525V115.664C106.684 114.501 106.455 113.348 106.01 112.273C105.564 111.199 104.912 110.222 104.089 109.398C103.266 108.576 102.289 107.923 101.214 107.478C100.139 107.033 98.9868 106.803 97.8232 106.803H62.378C50.628 106.803 39.3592 102.136 31.0505 93.8271C22.742 85.5186 18.0742 74.2502 18.074 62.5C18.074 56.6819 19.22 50.9209 21.4465 45.5457C23.673 40.1705 26.9364 35.2866 31.0504 31.1725C35.1644 27.0586 40.0484 23.7953 45.4237 21.5689C50.7988 19.3424 56.5599 18.1966 62.378 18.1966H97.8206C98.9841 18.197 100.137 17.968 101.212 17.5229C102.288 17.0778 103.265 16.4251 104.088 15.6023C104.911 14.7794 105.564 13.8025 106.01 12.7273C106.455 11.6521 106.684 10.4997 106.684 9.33584V0.475037H62.38C54.2348 0.475037 46.1694 2.07936 38.6442 5.19641C31.119 8.31347 24.2815 12.8822 18.522 18.6417C12.7625 24.4013 8.19379 31.2389 5.07684 38.7642C1.95987 46.2893 0.355626 54.3548 0.355713 62.5C0.355713 78.9497 6.89036 94.7262 18.5221 106.358C30.154 117.99 45.9301 124.525 62.38 124.525H106.684Z" fill="url(#paint0_linear_1343_13716)"/>
<path d="M35.7959 62.5C35.7959 69.55 38.5964 76.3109 43.5814 81.2955C48.5662 86.2808 55.3273 89.0811 62.377 89.0811H106.684C111.385 89.0811 115.891 90.9484 119.215 94.2717C122.538 97.595 124.405 102.103 124.405 106.803V124.524H142.127V106.803C142.127 97.4036 138.393 88.3887 131.746 81.7414C125.099 75.0948 116.084 71.3608 106.684 71.3608H62.3783C60.0283 71.3608 57.7745 70.4271 56.1128 68.7658C54.451 67.1038 53.5175 64.85 53.5175 62.5C53.5175 60.15 54.451 57.8962 56.1128 56.2344C57.7745 54.5727 60.0283 53.6392 62.3783 53.6392H106.684C116.084 53.6392 125.099 49.9051 131.746 43.2583C138.393 36.6116 142.127 27.5966 142.127 18.1966V0.475037H124.403V18.1966C124.403 22.896 122.536 27.4031 119.213 30.7263C115.891 34.0495 111.384 35.9169 106.684 35.9176H62.3783C58.8874 35.9174 55.4307 36.6048 52.2055 37.9407C48.9803 39.2765 46.0497 41.2346 43.5814 43.703C41.1129 46.1714 39.1549 49.1019 37.8191 52.3272C36.4832 55.5524 35.7958 59.0091 35.7959 62.5Z" fill="url(#paint1_linear_1343_13716)"/>
</g>
<path d="M187.02 88V36.88H208.836C211.284 36.88 213.516 37.384 215.532 38.392C217.596 39.352 219.372 40.672 220.86 42.352C222.348 43.984 223.5 45.832 224.316 47.896C225.132 49.96 225.54 52.072 225.54 54.232C225.54 57.16 224.844 59.944 223.452 62.584C222.108 65.224 220.212 67.384 217.764 69.064C215.364 70.696 212.508 71.512 209.196 71.512H198.828V88H187.02ZM198.828 61.216H208.476C209.388 61.216 210.228 60.952 210.996 60.424C211.764 59.896 212.388 59.104 212.868 58.048C213.348 56.992 213.588 55.696 213.588 54.16C213.588 52.576 213.3 51.28 212.724 50.272C212.196 49.216 211.5 48.448 210.636 47.968C209.82 47.488 208.956 47.248 208.044 47.248H198.828V61.216ZM254.919 60.064C252.135 60.064 249.615 60.52 247.359 61.432C245.103 62.296 243.471 63.592 242.463 65.32V88H230.943V50.2H241.527V57.832C242.823 55.288 244.503 53.296 246.567 51.856C248.631 50.416 250.791 49.672 253.047 49.624C253.575 49.624 253.959 49.624 254.199 49.624C254.487 49.624 254.727 49.648 254.919 49.696V60.064ZM277.49 88.72C274.274 88.72 271.394 88.192 268.85 87.136C266.354 86.08 264.242 84.64 262.514 82.816C260.786 80.992 259.466 78.904 258.554 76.552C257.69 74.2 257.258 71.728 257.258 69.136C257.258 66.496 257.69 64 258.554 61.648C259.466 59.296 260.786 57.208 262.514 55.384C264.242 53.56 266.354 52.12 268.85 51.064C271.394 50.008 274.274 49.48 277.49 49.48C280.706 49.48 283.562 50.008 286.058 51.064C288.554 52.12 290.666 53.56 292.394 55.384C294.122 57.208 295.442 59.296 296.354 61.648C297.266 64 297.722 66.496 297.722 69.136C297.722 71.728 297.266 74.2 296.354 76.552C295.442 78.904 294.122 80.992 292.394 82.816C290.666 84.64 288.554 86.08 286.058 87.136C283.562 88.192 280.706 88.72 277.49 88.72ZM269.066 69.136C269.066 71.104 269.426 72.832 270.146 74.32C270.914 75.808 271.922 76.96 273.17 77.776C274.418 78.592 275.858 79 277.49 79C279.074 79 280.49 78.592 281.738 77.776C283.034 76.912 284.042 75.736 284.762 74.248C285.482 72.76 285.842 71.056 285.842 69.136C285.842 67.168 285.482 65.44 284.762 63.952C284.042 62.464 283.034 61.312 281.738 60.496C280.49 59.68 279.074 59.272 277.49 59.272C275.858 59.272 274.418 59.68 273.17 60.496C271.922 61.312 270.914 62.464 270.146 63.952C269.426 65.44 269.066 67.168 269.066 69.136ZM363.196 88H351.676V66.76C351.676 64.312 351.22 62.512 350.308 61.36C349.396 60.208 348.22 59.632 346.78 59.632C345.244 59.632 343.732 60.256 342.244 61.504C340.756 62.752 339.7 64.36 339.076 66.328V88H327.556V66.76C327.556 64.264 327.1 62.464 326.188 61.36C325.276 60.208 324.1 59.632 322.66 59.632C321.172 59.632 319.684 60.256 318.196 61.504C316.708 62.752 315.628 64.36 314.956 66.328V88H303.436V50.2H313.804V56.536C315.196 54.28 317.068 52.552 319.42 51.352C321.82 50.104 324.604 49.48 327.772 49.48C330.892 49.48 333.292 50.224 334.972 51.712C336.652 53.152 337.732 54.856 338.212 56.824C339.652 54.472 341.548 52.672 343.9 51.424C346.3 50.128 348.988 49.48 351.964 49.48C354.364 49.48 356.308 49.936 357.796 50.848C359.284 51.712 360.412 52.864 361.18 54.304C361.948 55.744 362.476 57.304 362.764 58.984C363.052 60.616 363.196 62.224 363.196 63.808V88ZM394.629 88.72C391.797 88.72 389.325 88.12 387.213 86.92C385.101 85.672 383.445 83.992 382.245 81.88V103.336H370.725V50.2H380.733V56.32C382.125 54.16 383.877 52.48 385.989 51.28C388.101 50.08 390.573 49.48 393.405 49.48C395.949 49.48 398.277 49.984 400.389 50.992C402.549 52 404.421 53.392 406.005 55.168C407.589 56.944 408.813 59.008 409.677 61.36C410.541 63.712 410.973 66.256 410.973 68.992C410.973 72.736 410.277 76.096 408.885 79.072C407.493 82.048 405.549 84.4 403.053 86.128C400.605 87.856 397.797 88.72 394.629 88.72ZM390.741 79C391.989 79 393.117 78.736 394.125 78.208C395.181 77.632 396.093 76.888 396.861 75.976C397.629 75.064 398.205 74.008 398.589 72.808C399.021 71.56 399.237 70.264 399.237 68.92C399.237 67.528 398.997 66.256 398.517 65.104C398.085 63.952 397.461 62.944 396.645 62.08C395.829 61.168 394.869 60.472 393.765 59.992C392.661 59.512 391.461 59.272 390.165 59.272C389.397 59.272 388.605 59.392 387.789 59.632C387.021 59.872 386.277 60.232 385.557 60.712C384.885 61.144 384.261 61.672 383.685 62.296C383.109 62.92 382.629 63.64 382.245 64.456V72.232C382.773 73.528 383.469 74.68 384.333 75.688C385.197 76.696 386.181 77.512 387.285 78.136C388.389 78.712 389.541 79 390.741 79ZM440.767 85.984C439.711 86.416 438.535 86.848 437.239 87.28C435.991 87.712 434.671 88.048 433.279 88.288C431.887 88.576 430.519 88.72 429.175 88.72C427.255 88.72 425.479 88.408 423.847 87.784C422.263 87.112 420.991 86.032 420.031 84.544C419.119 83.056 418.663 81.088 418.663 78.64V58.912H413.839V50.2H418.663V38.176H430.183V50.2H437.887V58.912H430.183V74.68C430.183 75.928 430.495 76.84 431.119 77.416C431.743 77.944 432.535 78.208 433.495 78.208C434.311 78.208 435.175 78.064 436.087 77.776C437.047 77.488 437.863 77.176 438.535 76.84L440.767 85.984ZM459.08 36.88H471.824L489.392 88H477.296L473.336 76.552H457.424L453.536 88H441.44L459.08 36.88ZM471.392 68.416L465.416 48.76L459.296 68.416H471.392ZM494.426 88V36.88H506.234V88H494.426Z" fill="black"/>
<defs>
<linearGradient id="paint0_linear_1343_13716" x1="16.4113" y1="62.5" x2="152.831" y2="62.5" gradientUnits="userSpaceOnUse">
<stop stop-color="#F54A48"/>
<stop offset="1" stop-color="#FA982F"/>
</linearGradient>
<linearGradient id="paint1_linear_1343_13716" x1="16.3373" y1="62.4997" x2="152.866" y2="62.4997" gradientUnits="userSpaceOnUse">
<stop stop-color="#F54A48"/>
<stop offset="1" stop-color="#FA982F"/>
</linearGradient>
</defs>
</svg>
