<svg width="528" height="159" viewBox="0 0 528 159" fill="none" xmlns="http://www.w3.org/2000/svg">
<g clip-path="url(#clip0_1343_13691)">
<mask id="mask0_1343_13691" style="mask-type:luminance" maskUnits="userSpaceOnUse" x="0" y="0" width="159" height="159">
<path d="M159 0H0V159H159V0Z" fill="white"/>
</mask>
<g mask="url(#mask0_1343_13691)">
<path d="M83.2261 31.6076C98.137 36.4978 111.29 45.2274 121.592 56.5992C123.288 55.08 125.301 54.1891 127.467 54.1891C128.103 54.1891 128.724 54.2812 129.328 54.4274C133.142 43.7842 134.497 32.3182 132.755 20.6601C132.745 20.588 132.725 20.52 132.715 20.4479C125.755 14.1744 117.683 9.11806 108.826 5.599C99.3701 12.619 90.6806 21.3647 83.2261 31.6076Z" fill="#FF5722"/>
<path d="M47.173 27.594C49.8992 27.3378 52.6497 27.1596 55.4441 27.1596C62.5262 27.1596 69.4062 28.0004 76.008 29.5616C83.6386 19.1766 92.5483 10.347 102.229 3.31488C95.0284 1.16502 87.3999 0 79.499 0C70.293 0 61.4593 1.58338 53.2362 4.46187C48.8184 10.4431 45.1672 17.0128 42.3428 24.0068C44.4266 24.7335 46.128 25.9725 47.173 27.594Z" fill="#FF5722"/>
<path d="M38.3391 41.4821C37.9667 41.5701 37.5965 41.6422 37.2282 41.7022C36.3433 46.7185 35.855 51.871 35.855 57.1416C35.855 72.3208 39.7142 86.5791 46.4361 99.068C47.8854 98.8798 49.3906 98.8798 50.9121 99.048C51.7207 83.3683 55.6281 67.1242 63.0085 51.4347C65.3725 46.4063 68.0189 41.6262 70.8894 37.0842C64.5018 35.6289 57.8521 34.8603 51.0201 34.8603C49.797 34.8603 48.59 34.9304 47.379 34.9844C45.8556 37.9569 42.5527 40.4791 38.3391 41.4821Z" fill="#FF5722"/>
<path d="M78.1656 39.104C75.4113 43.5077 72.8611 48.1318 70.577 52.99C63.0665 68.9559 59.1651 85.4902 58.4585 101.424C61.371 103.007 63.7171 105.199 65.3646 107.699C87.0754 103.075 105.359 91.3513 117.508 75.7878C116.885 73.8662 116.531 71.7383 116.531 69.4923C116.531 67.6728 116.772 65.9332 117.185 64.3158C106.732 52.7738 93.3468 43.9561 78.1656 39.104Z" fill="#FF5722"/>
<path d="M34.4159 107.595C35.3567 105.369 36.8701 103.536 38.7436 102.125C32.0578 89.6557 28.2385 75.4194 28.2385 60.2802C28.2385 53.7466 29.0192 47.4051 30.3704 41.2778C28.5948 40.7053 27.0814 39.7684 25.9885 38.5414C19.3869 40.4711 13.0893 43.1093 7.21426 46.4202C2.59625 56.495 0 67.6927 0 79.5009C0 86.2868 0.854742 92.8705 2.45413 99.1559C11.9064 104.282 22.5656 107.717 33.8834 109.119C34.0295 108.606 34.2037 108.098 34.4159 107.595Z" fill="#FF5722"/>
<path d="M127.467 84.7915C125.895 84.7915 124.402 84.3211 123.052 83.4844C110.468 99.9267 91.0851 112.201 68.031 116.495C67.995 118.146 67.6767 119.794 67.0101 121.374C66.6798 122.152 66.2655 122.873 65.8071 123.559C81.1504 137.159 101.212 145.534 123.249 145.87C129.538 141.717 135.199 136.692 140.063 130.972C140.236 128.733 140.356 126.48 140.356 124.196C140.356 109.753 136.857 96.1534 130.764 84.085C129.722 84.5413 128.615 84.7915 127.467 84.7915Z" fill="#FF5722"/>
<path d="M60.4526 128.64C62.6586 139.507 66.526 149.655 71.9227 158.63C74.4189 158.864 76.943 159 79.5012 159C93.5053 159 106.653 155.367 118.08 149.011C117.718 149.015 117.364 149.045 117.004 149.045C95.4991 149.043 75.8081 141.367 60.4526 128.64Z" fill="#FF5722"/>
<path d="M44.8149 128.446C39.2041 126.076 35.2846 121.558 33.9135 116.623C23.2362 114.69 13.2435 110.926 4.42188 105.648C13.6599 132.173 36.5457 152.296 64.6701 157.605C59.6018 149.318 55.8765 139.994 53.5525 130.027C50.7121 130.165 47.7174 129.672 44.8149 128.446Z" fill="#FF5722"/>
<path d="M34.1077 23.7105C34.8544 23.5323 35.597 23.4163 36.3296 23.3443C38.9019 17.7534 42.0146 12.4648 45.6377 7.56653C31.2312 14.3604 19.2008 25.3499 11.1138 38.9658C15.2813 36.5777 19.6672 34.5359 24.2192 32.8325C24.7776 28.7909 28.695 24.9997 34.1077 23.7105Z" fill="#FF5722"/>
<path d="M159 79.5009C159 58.2544 150.649 38.9697 137.07 24.7073C137.369 26.1065 137.631 27.5218 137.846 28.955C139.398 39.3481 138.484 49.5909 135.568 59.2353C137.324 61.9497 138.404 65.5408 138.404 69.4922C138.404 72.8771 137.61 75.9959 136.278 78.5301C141.705 90.056 144.775 102.911 144.775 116.497C144.775 119.544 144.606 122.548 144.307 125.519C153.545 112.528 159 96.6557 159 79.5009Z" fill="#FF5722"/>
<path d="M47.6326 121.769C52.3261 123.753 57.5082 122.103 59.2074 118.084C60.9065 114.064 58.4793 109.198 53.7858 107.214C49.0925 105.23 43.9103 106.879 42.2112 110.899C40.512 114.918 42.9393 119.785 47.6326 121.769Z" fill="#FF5722"/>
<path d="M127.467 75.9738C130.025 75.9738 132.099 73.0711 132.099 69.4903C132.099 65.9095 130.025 63.0066 127.467 63.0066C124.908 63.0066 122.834 65.9095 122.834 69.4903C122.834 73.0711 124.908 75.9738 127.467 75.9738Z" fill="#FF5722"/>
<path d="M37.1221 36.3756C39.9159 35.7095 41.7771 33.4767 41.2792 31.3883C40.7813 29.3 38.1129 28.147 35.3192 28.8131C32.5254 29.4792 30.6642 31.712 31.1621 33.8003C31.66 35.8887 34.3284 37.0417 37.1221 36.3756Z" fill="#FF5722"/>
</g>
</g>
<path d="M203.896 105V53.88H225.712C228.16 53.88 230.392 54.384 232.408 55.392C234.472 56.352 236.248 57.672 237.736 59.352C239.224 60.984 240.376 62.832 241.192 64.896C242.008 66.96 242.416 69.072 242.416 71.232C242.416 74.16 241.72 76.944 240.328 79.584C238.984 82.224 237.088 84.384 234.64 86.064C232.24 87.696 229.384 88.512 226.072 88.512H215.704V105H203.896ZM215.704 78.216H225.352C226.264 78.216 227.104 77.952 227.872 77.424C228.64 76.896 229.264 76.104 229.744 75.048C230.224 73.992 230.464 72.696 230.464 71.16C230.464 69.576 230.176 68.28 229.6 67.272C229.072 66.216 228.376 65.448 227.512 64.968C226.696 64.488 225.832 64.248 224.92 64.248H215.704V78.216ZM271.795 77.064C269.011 77.064 266.491 77.52 264.235 78.432C261.979 79.296 260.347 80.592 259.339 82.32V105H247.819V67.2H258.403V74.832C259.699 72.288 261.379 70.296 263.443 68.856C265.507 67.416 267.667 66.672 269.923 66.624C270.451 66.624 270.835 66.624 271.075 66.624C271.363 66.624 271.603 66.648 271.795 66.696V77.064ZM294.366 105.72C291.15 105.72 288.27 105.192 285.726 104.136C283.23 103.08 281.118 101.64 279.39 99.816C277.662 97.992 276.342 95.904 275.43 93.552C274.566 91.2 274.134 88.728 274.134 86.136C274.134 83.496 274.566 81 275.43 78.648C276.342 76.296 277.662 74.208 279.39 72.384C281.118 70.56 283.23 69.12 285.726 68.064C288.27 67.008 291.15 66.48 294.366 66.48C297.582 66.48 300.438 67.008 302.934 68.064C305.43 69.12 307.542 70.56 309.27 72.384C310.998 74.208 312.318 76.296 313.23 78.648C314.142 81 314.598 83.496 314.598 86.136C314.598 88.728 314.142 91.2 313.23 93.552C312.318 95.904 310.998 97.992 309.27 99.816C307.542 101.64 305.43 103.08 302.934 104.136C300.438 105.192 297.582 105.72 294.366 105.72ZM285.942 86.136C285.942 88.104 286.302 89.832 287.022 91.32C287.79 92.808 288.798 93.96 290.046 94.776C291.294 95.592 292.734 96 294.366 96C295.95 96 297.366 95.592 298.614 94.776C299.91 93.912 300.918 92.736 301.638 91.248C302.358 89.76 302.718 88.056 302.718 86.136C302.718 84.168 302.358 82.44 301.638 80.952C300.918 79.464 299.91 78.312 298.614 77.496C297.366 76.68 295.95 76.272 294.366 76.272C292.734 76.272 291.294 76.68 290.046 77.496C288.798 78.312 287.79 79.464 287.022 80.952C286.302 82.44 285.942 84.168 285.942 86.136ZM380.072 105H368.552V83.76C368.552 81.312 368.096 79.512 367.184 78.36C366.272 77.208 365.096 76.632 363.656 76.632C362.12 76.632 360.608 77.256 359.12 78.504C357.632 79.752 356.576 81.36 355.952 83.328V105H344.432V83.76C344.432 81.264 343.976 79.464 343.064 78.36C342.152 77.208 340.976 76.632 339.536 76.632C338.048 76.632 336.56 77.256 335.072 78.504C333.584 79.752 332.504 81.36 331.832 83.328V105H320.312V67.2H330.68V73.536C332.072 71.28 333.944 69.552 336.296 68.352C338.696 67.104 341.48 66.48 344.648 66.48C347.768 66.48 350.168 67.224 351.848 68.712C353.528 70.152 354.608 71.856 355.088 73.824C356.528 71.472 358.424 69.672 360.776 68.424C363.176 67.128 365.864 66.48 368.84 66.48C371.24 66.48 373.184 66.936 374.672 67.848C376.16 68.712 377.288 69.864 378.056 71.304C378.824 72.744 379.352 74.304 379.64 75.984C379.928 77.616 380.072 79.224 380.072 80.808V105ZM411.505 105.72C408.673 105.72 406.201 105.12 404.089 103.92C401.977 102.672 400.321 100.992 399.121 98.88V120.336H387.601V67.2H397.609V73.32C399.001 71.16 400.753 69.48 402.865 68.28C404.977 67.08 407.449 66.48 410.281 66.48C412.825 66.48 415.153 66.984 417.265 67.992C419.425 69 421.297 70.392 422.881 72.168C424.465 73.944 425.689 76.008 426.553 78.36C427.417 80.712 427.849 83.256 427.849 85.992C427.849 89.736 427.153 93.096 425.761 96.072C424.369 99.048 422.425 101.4 419.929 103.128C417.481 104.856 414.673 105.72 411.505 105.72ZM407.617 96C408.865 96 409.993 95.736 411.001 95.208C412.057 94.632 412.969 93.888 413.737 92.976C414.505 92.064 415.081 91.008 415.465 89.808C415.897 88.56 416.113 87.264 416.113 85.92C416.113 84.528 415.873 83.256 415.393 82.104C414.961 80.952 414.337 79.944 413.521 79.08C412.705 78.168 411.745 77.472 410.641 76.992C409.537 76.512 408.337 76.272 407.041 76.272C406.273 76.272 405.481 76.392 404.665 76.632C403.897 76.872 403.153 77.232 402.433 77.712C401.761 78.144 401.137 78.672 400.561 79.296C399.985 79.92 399.505 80.64 399.121 81.456V89.232C399.649 90.528 400.345 91.68 401.209 92.688C402.073 93.696 403.057 94.512 404.161 95.136C405.265 95.712 406.417 96 407.617 96ZM457.643 102.984C456.587 103.416 455.411 103.848 454.115 104.28C452.867 104.712 451.547 105.048 450.155 105.288C448.763 105.576 447.395 105.72 446.051 105.72C444.131 105.72 442.355 105.408 440.723 104.784C439.139 104.112 437.867 103.032 436.907 101.544C435.995 100.056 435.539 98.088 435.539 95.64V75.912H430.715V67.2H435.539V55.176H447.059V67.2H454.763V75.912H447.059V91.68C447.059 92.928 447.371 93.84 447.995 94.416C448.619 94.944 449.411 95.208 450.371 95.208C451.187 95.208 452.051 95.064 452.963 94.776C453.923 94.488 454.739 94.176 455.411 93.84L457.643 102.984ZM475.956 53.88H488.7L506.268 105H494.172L490.212 93.552H474.3L470.412 105H458.316L475.956 53.88ZM488.268 85.416L482.292 65.76L476.172 85.416H488.268ZM511.302 105V53.88H523.11V105H511.302Z" fill="#252423"/>
<defs>
<clipPath id="clip0_1343_13691">
<rect width="159" height="159" fill="white"/>
</clipPath>
</defs>
</svg>
